<svg width="417" height="428" xmlns="http://www.w3.org/2000/svg" xmlns:xlink="http://www.w3.org/1999/xlink" xml:space="preserve" overflow="hidden"><defs><clipPath id="clip0"><rect x="0" y="0" width="417" height="428"/></clipPath></defs><g clip-path="url(#clip0)"><path d="M0 0 0 0M0 0 0 0M88.6114 0 88.6114 0M0 0 0 0" stroke="#000000" stroke-width="0.58683" fill="none" transform="matrix(1.00037 0 0 1 22.0143 29.3928)"/><path d="M0 44.0123 0 44.0123M0 0 0 38.144M0 369.116 0 369.116M0 44.0123 0 44.0123M0 88.6114 0 126.755M0 177.223 0 215.367M0 280.505 0 318.649" stroke="#000000" stroke-width="0.58683" fill="none" transform="matrix(1.00037 0 0 1 66.043 51.4964)"/><path d="M2.93415 38.144 0 44.0123-2.93415 38.144Z" transform="matrix(1.00037 0 0 1 66.043 51.4964)"/><path d="M2.93415 126.755 0 132.624-2.93415 126.755Z" transform="matrix(1.00037 0 0 1 66.043 51.4964)"/><path d="M2.93415 215.367 0 221.235-2.93415 215.367Z" transform="matrix(1.00037 0 0 1 66.043 51.4964)"/><path d="M2.93415 318.649 0 324.517-2.93415 318.649Z" transform="matrix(1.00037 0 0 1 66.043 51.4964)"/><path d="M21.7127 0 16.8274 0.556902 14.8486 1.11322 13.3615 1.67012 12.1345 2.22702 11.0764 2.78392 10.141 3.34024 9.30126 3.89714 8.5378 4.45404 7.83888 5.01036 7.19454 5.56726 6.59832 6.12416 6.04494 6.68106 5.52912 7.23738 5.04791 7.79428 4.5984 8.35118 4.17765 8.9075 3.78447 9.4644 3.41653 10.0213 3.07264 10.5782 2.75106 11.1345 2.45119 11.6914 2.17127 12.2483 1.91131 12.8052 1.67012 13.3615 1.44712 13.9184 1.24173 14.4753 1.05336 15.0317 0.881419 15.5886 0.725909 16.1455 0.586244 16.7024 0.461836 17.2587 0.352685 17.8156 0.258205 18.3725 0.178983 18.9288 0.114432 19.4857 0.0645513 20.0426 0.0287547 20.5995 0.00704196 21.1558 0 21.7127 0 22.3976 0.00704196 22.9539 0.0287547 23.5108 0.0645513 24.0677 0.114432 24.6246 0.178983 25.1809 0.258205 25.7378 0.352685 26.2947 0.461836 26.851 0.586244 27.4079 0.725909 27.9648 0.881419 28.5217 1.05336 29.078 1.24173 29.6349 1.44712 30.1918 1.67012 30.7482 1.91131 31.3051 2.17127 31.862 2.45119 32.4189 2.75106 32.9752 3.07264 33.5321 3.41653 34.089 3.78447 34.6453 4.17765 35.2022 4.5984 35.7591 5.04791 36.316 5.52912 36.8723 6.04494 37.4292 6.59832 37.9861 7.19454 38.5424 7.83888 39.0993 8.5378 39.6562 9.30126 40.2131 10.141 40.7695 11.0764 41.3264 12.1345 41.8833 13.3615 42.4402 14.8486 42.9965 16.8274 43.5534 21.7127 44.1103 66.3118 44.1103 71.1972 43.5534 73.176 42.9965 74.663 42.4402 75.8901 41.8833 76.9481 41.3264 77.8835 40.7695 78.7233 40.2131 79.4868 39.6562 80.1857 39.0993 80.83 38.5424 81.4262 37.9861 81.9796 37.4292 82.4954 36.8723 82.9766 36.316 83.4262 35.7591 83.8469 35.2022 84.2401 34.6453 84.608 34.089 84.9519 33.5321 85.2735 32.9752 85.5734 32.4189 85.8533 31.862 86.1133 31.3051 86.3544 30.7482 86.5774 30.1918 86.7828 29.6349 86.9712 29.078 87.1431 28.5217 87.2986 27.9648 87.4383 27.4079 87.5627 26.851 87.6719 26.2947 87.7663 25.7378 87.8456 25.1809 87.9101 24.6246 87.96 24.0677 87.9958 23.5108 88.0175 22.9539 88.0246 22.3976 88.0246 21.7127 88.0175 21.1558 87.9958 20.5995 87.96 20.0426 87.9101 19.4857 87.8456 18.9288 87.7663 18.3725 87.6719 17.8156 87.5627 17.2587 87.4383 16.7024 87.2986 16.1455 87.1431 15.5886 86.9712 15.0317 86.7828 14.4753 86.5774 13.9184 86.3544 13.3615 86.1133 12.8052 85.8533 12.2483 85.5734 11.6914 85.2735 11.1345 84.9519 10.5782 84.608 10.0213 84.2401 9.4644 83.8469 8.9075 83.4262 8.35118 82.9766 7.79428 82.4954 7.23738 81.9796 6.68106 81.4262 6.12416 80.83 5.56726 80.1857 5.01036 79.4868 4.45404 78.7233 3.89714 77.8835 3.34024 76.9481 2.78392 75.8901 2.22702 74.663 1.67012 73.176 1.11322 71.1972 0.556902 66.3118 0 21.7127 0Z" stroke="#000000" stroke-width="0.58683" fill="#FFFFFF" transform="matrix(1.00037 0 0 1 22.0143 7.3867)"/><text fill="#333333" font-family="Arial,Arial_MSFontService,sans-serif" font-weight="400" font-size="14" transform="matrix(0.587049 0 0 0.58683 57.4357 32)">Start</text><path d="M0 0 88.0246 0 88.0246 44.0123 0 44.0123Z" stroke="#000000" stroke-width="0.58683" fill="#FFFFFF" transform="matrix(1.00037 0 0 1 22.0143 184.12)"/><text fill="#333333" font-family="Arial,Arial_MSFontService,sans-serif" font-weight="400" font-size="14" transform="matrix(0.587049 0 0 0.58683 26.6315 200)">Estimate sensor data</text><text fill="#333333" font-family="Arial,Arial_MSFontService,sans-serif" font-weight="400" font-size="14" transform="matrix(0.587049 0 0 0.58683 35.0128 209)">for all states and</text><text fill="#333333" font-family="Arial,Arial_MSFontService,sans-serif" font-weight="400" font-size="14" transform="matrix(0.587049 0 0 0.58683 28.4431 218)">calculate UTCI value</text><path d="M78.2439 0 78.2439 0M0 0 72.3755 0M299.479 0 299.479 0M78.2439 0 78.2439 0M166.855 0 204.999 0" stroke="#000000" stroke-width="0.58683" fill="none" transform="matrix(1.00037 0 0 1 110.072 398.02)"/><path d="M72.3755-2.93415 78.2439 0 72.3755 2.93415Z" transform="matrix(1.00037 0 0 1 110.072 398.02)"/><path d="M204.999-2.93415 210.868 0 204.999 2.93415Z" transform="matrix(1.00037 0 0 1 110.072 398.02)"/><path d="M0 0 88.0246 0 88.0246 44.0123 0 44.0123Z" stroke="#000000" stroke-width="0.58683" fill="#FFFFFF" transform="matrix(1.00037 0 0 1 22.0143 376.014)"/><text fill="#333333" font-family="Arial,Arial_MSFontService,sans-serif" font-weight="400" font-size="14" transform="matrix(0.587049 0 0 0.58683 28.4431 391)">Select the state with</text><text fill="#333333" font-family="Arial,Arial_MSFontService,sans-serif" font-weight="400" font-size="14" transform="matrix(0.587049 0 0 0.58683 41.1316 401)">lowest power</text><text fill="#333333" font-family="Arial,Arial_MSFontService,sans-serif" font-weight="400" font-size="14" transform="matrix(0.587049 0 0 0.58683 42.932 410)">consumption</text><path d="M11.7366 0 88.0246 0 76.2879 44.0123 0 44.0123 11.7366 0Z" stroke="#000000" stroke-width="0.58683" fill="#FFFFFF" transform="matrix(1.00037 0 0 1 22.0143 95.5087)"/><text fill="#333333" font-family="Arial,Arial_MSFontService,sans-serif" font-weight="400" font-size="14" transform="matrix(0.587049 0 0 0.58683 33.8856 116)">Collect all sensor</text><text fill="#333333" font-family="Arial,Arial_MSFontService,sans-serif" font-weight="400" font-size="14" transform="matrix(0.587049 0 0 0.58683 58.1049 125)">data</text><path d="M63.5731 0 63.5731 0M0 0 57.7048 0M152.184 0 152.184 0M63.5731 0 63.5731 0" stroke="#000000" stroke-width="0.58683" fill="none" transform="matrix(1.00037 0 0 1 124.748 302.073)"/><path d="M57.7048-2.93415 63.5731 0 57.7048 2.93415Z" transform="matrix(1.00037 0 0 1 124.748 302.073)"/><path d="M0 0 41.9308 0 41.9308 29.0481 1.71923e-06 29.0481Z" fill="#FFFFFF" transform="matrix(1.00037 0 0 1 135.573 287.549)"/><text fill="#333333" font-family="Arial,Arial_MSFontService,sans-serif" font-weight="400" font-size="14" transform="matrix(0.587049 0 0 0.58683 136.16 295)">No state is</text><text fill="#333333" font-family="Arial,Arial_MSFontService,sans-serif" font-weight="400" font-size="14" transform="matrix(0.587049 0 0 0.58683 153.374 305)">in</text><text fill="#333333" font-family="Arial,Arial_MSFontService,sans-serif" font-weight="400" font-size="14" transform="matrix(0.587049 0 0 0.58683 139.325 314)">the range</text><path d="M58.683 0 117.366 29.3415 58.683 58.683 0 29.3415 58.683 0Z" stroke="#000000" stroke-width="0.58683" fill="#FFFFFF" transform="matrix(1.00037 0 0 1 7.33811 272.731)"/><text fill="#333333" font-family="Arial,Arial_MSFontService,sans-serif" font-weight="400" font-size="14" transform="matrix(0.587049 0 0 0.58683 47.0173 295)">Find state</text><text fill="#333333" font-family="Arial,Arial_MSFontService,sans-serif" font-weight="400" font-size="14" transform="matrix(0.587049 0 0 0.58683 39.7749 305)">within comfort</text><text fill="#333333" font-family="Arial,Arial_MSFontService,sans-serif" font-weight="400" font-size="14" transform="matrix(0.587049 0 0 0.58683 55.617 314)">range</text><path d="M0 0 88.0246 0 88.0246 44.0123 0 44.0123Z" stroke="#000000" stroke-width="0.58683" fill="#FFFFFF" transform="matrix(1.00037 0 0 1 188.345 280.067)"/><text fill="#333333" font-family="Arial,Arial_MSFontService,sans-serif" font-weight="400" font-size="14" transform="matrix(0.587049 0 0 0.58683 194.773 300)">Select the state with</text><text fill="#333333" font-family="Arial,Arial_MSFontService,sans-serif" font-weight="400" font-size="14" transform="matrix(0.587049 0 0 0.58683 199.306 309)">lowest UTCI value</text><path d="M0 0 88.0246 0 88.0246 44.0123 0 44.0123Z" stroke="#000000" stroke-width="0.58683" fill="#FFFFFF" transform="matrix(1.00037 0 0 1 188.345 376.014)"/><text fill="#333333" font-family="Arial,Arial_MSFontService,sans-serif" font-weight="400" font-size="14" transform="matrix(0.587049 0 0 0.58683 193.634 396)">Send the state to the</text><text fill="#333333" font-family="Arial,Arial_MSFontService,sans-serif" font-weight="400" font-size="14" transform="matrix(0.587049 0 0 0.58683 218.549 405)">ESP</text><text fill="#333333" font-family="Arial,Arial_MSFontService,sans-serif" font-weight="400" font-size="14" transform="matrix(0.587049 0 0 0.58683 234.4 405)">32</text><path d="M0 0 0 46.0662" stroke="#000000" stroke-width="0.58683" fill="none" transform="matrix(1.00037 0 0 1 232.373 324.079)"/><path d="M2.93415 46.0662 0 51.9345-2.93415 46.0662Z" transform="matrix(1.00037 0 0 1 232.373 324.079)"/><path d="M21.7127 0 16.8274 0.556902 14.8486 1.11322 13.3615 1.67012 12.1345 2.22702 11.0764 2.78392 10.141 3.34024 9.30126 3.89714 8.5378 4.45404 7.83888 5.01036 7.19454 5.56726 6.59832 6.12416 6.04494 6.68106 5.52912 7.23738 5.04791 7.79428 4.5984 8.35118 4.17765 8.9075 3.78447 9.4644 3.41653 10.0213 3.07264 10.5782 2.75106 11.1345 2.45119 11.6914 2.17127 12.2483 1.91131 12.8052 1.67012 13.3615 1.44712 13.9184 1.24173 14.4753 1.05336 15.0317 0.881419 15.5886 0.725909 16.1455 0.586244 16.7024 0.461836 17.2587 0.352685 17.8156 0.258205 18.3725 0.178983 18.9288 0.114432 19.4857 0.0645513 20.0426 0.0287547 20.5995 0.00704196 21.1558 0 21.7127 0 22.2996 0.00704196 22.8565 0.0287547 23.4128 0.0645513 23.9697 0.114432 24.5266 0.178983 25.0835 0.258205 25.6398 0.352685 26.1967 0.461836 26.7536 0.586244 27.3099 0.725909 27.8668 0.881419 28.4237 1.05336 28.9806 1.24173 29.5369 1.44712 30.0938 1.67012 30.6507 1.91131 31.2071 2.17127 31.764 2.45119 32.3209 2.75106 32.8778 3.07264 33.4341 3.41653 33.991 3.78447 34.5479 4.17765 35.1048 4.5984 35.6611 5.04791 36.218 5.52912 36.7749 6.04494 37.3312 6.59832 37.8881 7.19454 38.445 7.83888 39.0019 8.5378 39.5582 9.30126 40.1151 10.141 40.672 11.0764 41.2284 12.1345 41.7853 13.3615 42.3422 14.8486 42.8991 16.8274 43.4554 21.7127 44.0123 66.3118 44.0123 71.1972 43.4554 73.176 42.8991 74.663 42.3422 75.8901 41.7853 76.9481 41.2284 77.8835 40.672 78.7233 40.1151 79.4868 39.5582 80.1857 39.0019 80.83 38.445 81.4262 37.8881 81.9796 37.3312 82.4954 36.7749 82.9766 36.218 83.4262 35.6611 83.8469 35.1048 84.2401 34.5479 84.608 33.991 84.9519 33.4341 85.2735 32.8778 85.5734 32.3209 85.8533 31.764 86.1133 31.2071 86.3544 30.6507 86.5774 30.0938 86.7828 29.5369 86.9712 28.9806 87.1431 28.4237 87.2986 27.8668 87.4383 27.3099 87.5627 26.7536 87.6719 26.1967 87.7663 25.6398 87.8456 25.0835 87.9101 24.5266 87.96 23.9697 87.9958 23.4128 88.0175 22.8565 88.0246 22.2996 88.0246 21.7127 88.0175 21.1558 87.9958 20.5995 87.96 20.0426 87.9101 19.4857 87.8456 18.9288 87.7663 18.3725 87.6719 17.8156 87.5627 17.2587 87.4383 16.7024 87.2986 16.1455 87.1431 15.5886 86.9712 15.0317 86.7828 14.4753 86.5774 13.9184 86.3544 13.3615 86.1133 12.8052 85.8533 12.2483 85.5734 11.6914 85.2735 11.1345 84.9519 10.5782 84.608 10.0213 84.2401 9.4644 83.8469 8.9075 83.4262 8.35118 82.9766 7.79428 82.4954 7.23738 81.9796 6.68106 81.4262 6.12416 80.83 5.56726 80.1857 5.01036 79.4868 4.45404 78.7233 3.89714 77.8835 3.34024 76.9481 2.78392 75.8901 2.22702 74.663 1.67012 73.176 1.11322 71.1972 0.556902 66.3118 0 21.7127 0Z" stroke="#000000" stroke-width="0.58683" fill="#FFFFFF" transform="matrix(1.00037 0 0 1 321.018 376.014)"/><text fill="#333333" font-family="Arial,Arial_MSFontService,sans-serif" font-weight="400" font-size="14" transform="matrix(0.587049 0 0 0.58683 357.793 401)">End</text></g></svg>